<svg width="16" height="16" viewBox="0 0 16 16" fill="none" xmlns="http://www.w3.org/2000/svg">
<path fill-rule="evenodd" clip-rule="evenodd" d="M2.18457 2.12386C2.18457 2.0088 2.27784 1.91553 2.3929 1.91553H5.72624C5.8413 1.91553 5.93457 2.0088 5.93457 2.12386V5.45719C5.93457 5.57225 5.8413 5.66553 5.72624 5.66553H2.3929C2.27784 5.66553 2.18457 5.57225 2.18457 5.45719V2.12386ZM2.3929 0.665527C1.58749 0.665527 0.93457 1.31845 0.93457 2.12386V5.45719C0.93457 6.26261 1.58749 6.91553 2.3929 6.91553H5.72624C6.53165 6.91553 7.18457 6.26261 7.18457 5.45719V2.12386C7.18457 1.31845 6.53165 0.665527 5.72624 0.665527H2.3929ZM10.5179 2.12386C10.5179 2.0088 10.6112 1.91553 10.7262 1.91553H14.0596C14.1746 1.91553 14.2679 2.0088 14.2679 2.12386V5.45719C14.2679 5.57225 14.1746 5.66553 14.0596 5.66553H10.7262C10.6112 5.66553 10.5179 5.57225 10.5179 5.45719V2.12386ZM10.7262 0.665527C9.92082 0.665527 9.2679 1.31845 9.2679 2.12386V5.45719C9.2679 6.26261 9.92082 6.91553 10.7262 6.91553H14.0596C14.865 6.91553 15.5179 6.26261 15.5179 5.45719V2.12386C15.5179 1.31845 14.865 0.665527 14.0596 0.665527H10.7262ZM2.3929 10.2489C2.27784 10.2489 2.18457 10.3421 2.18457 10.4572V13.7905C2.18457 13.9056 2.27784 13.9989 2.3929 13.9989H5.72624C5.8413 13.9989 5.93457 13.9056 5.93457 13.7905V10.4572C5.93457 10.3421 5.8413 10.2489 5.72624 10.2489H2.3929ZM0.93457 10.4572C0.93457 9.65178 1.58749 8.99886 2.3929 8.99886H5.72624C6.53165 8.99886 7.18457 9.65178 7.18457 10.4572V13.7905C7.18457 14.5959 6.53165 15.2489 5.72624 15.2489H2.3929C1.58749 15.2489 0.93457 14.5959 0.93457 13.7905V10.4572ZM10.5179 10.4572C10.5179 10.3421 10.6112 10.2489 10.7262 10.2489H14.0596C14.1746 10.2489 14.2679 10.3421 14.2679 10.4572V13.7905C14.2679 13.9056 14.1746 13.9989 14.0596 13.9989H10.7262C10.6112 13.9989 10.5179 13.9056 10.5179 13.7905V10.4572ZM10.7262 8.99886C9.92082 8.99886 9.2679 9.65178 9.2679 10.4572V13.7905C9.2679 14.5959 9.92082 15.2489 10.7262 15.2489H14.0596C14.865 15.2489 15.5179 14.5959 15.5179 13.7905V10.4572C15.5179 9.65178 14.865 8.99886 14.0596 8.99886H10.7262Z" fill="#5F6980"/>
</svg>
