<svg width="24" height="26" viewBox="0 0 24 26" fill="none" xmlns="http://www.w3.org/2000/svg">
<path d="M7.66546 19.6667V21C7.66546 22.0609 8.08689 23.0783 8.83703 23.8284C9.58718 24.5786 10.6046 25 11.6655 25C12.7263 25 13.7437 24.5786 14.4939 23.8284C15.244 23.0783 15.6655 22.0609 15.6655 21V19.6667M8.99879 3.66667C8.99879 2.95942 9.27975 2.28115 9.77984 1.78105C10.2799 1.28095 10.9582 1 11.6655 1C12.3727 1 13.051 1.28095 13.5511 1.78105C14.0512 2.28115 14.3321 2.95942 14.3321 3.66667C15.8633 4.3907 17.1687 5.51777 18.1082 6.92707C19.0477 8.33636 19.586 9.97476 19.6655 11.6667V15.6667C19.7658 16.4956 20.0594 17.2894 20.5225 17.9842C20.9857 18.6789 21.6055 19.2552 22.3321 19.6667H0.998795C1.72538 19.2552 2.34521 18.6789 2.80838 17.9842C3.27155 17.2894 3.56512 16.4956 3.66546 15.6667V11.6667C3.74487 9.97476 4.2832 8.33636 5.22273 6.92707C6.16226 5.51777 7.46758 4.3907 8.99879 3.66667Z" stroke="#5F6980" stroke-width="1.7" stroke-linecap="round" stroke-linejoin="round"/>
</svg>
