<svg width="17" height="13" viewBox="0 0 17 13" fill="none" xmlns="http://www.w3.org/2000/svg">
<path fill-rule="evenodd" clip-rule="evenodd" d="M7.91667 2.91667C7.91667 1.99619 8.66286 1.25 9.58333 1.25C10.5038 1.25 11.25 1.99619 11.25 2.91667C11.25 3.83714 10.5038 4.58333 9.58333 4.58333C8.66286 4.58333 7.91667 3.83714 7.91667 2.91667ZM6.73379 3.54167H0.625C0.279822 3.54167 0 3.26184 0 2.91667C0 2.57149 0.279822 2.29167 0.625 2.29167H6.73379C7.0199 0.981174 8.18703 0 9.58333 0C10.9796 0 12.1468 0.981174 12.4329 2.29167H15.625C15.9702 2.29167 16.25 2.57149 16.25 2.91667C16.25 3.26184 15.9702 3.54167 15.625 3.54167H12.4329C12.1468 4.85216 10.9796 5.83333 9.58333 5.83333C8.18703 5.83333 7.0199 4.85216 6.73379 3.54167ZM2.91667 9.58333C2.91667 8.66286 3.66286 7.91667 4.58333 7.91667C5.50381 7.91667 6.25 8.66286 6.25 9.58333C6.25 10.5038 5.50381 11.25 4.58333 11.25C3.66286 11.25 2.91667 10.5038 2.91667 9.58333ZM4.58333 12.5C3.18703 12.5 2.0199 11.5188 1.73379 10.2083H0.625C0.279822 10.2083 0 9.92851 0 9.58333C0 9.23816 0.279822 8.95833 0.625 8.95833H1.73379C2.0199 7.64784 3.18703 6.66667 4.58333 6.66667C5.97963 6.66667 7.14677 7.64784 7.43288 8.95833H15.625C15.9702 8.95833 16.25 9.23816 16.25 9.58333C16.25 9.92851 15.9702 10.2083 15.625 10.2083H7.43288C7.14677 11.5188 5.97963 12.5 4.58333 12.5Z" fill="#5F6980"/>
</svg>
