<svg width="100" height="23" viewBox="0 0 100 23" fill="none" xmlns="http://www.w3.org/2000/svg">
<path d="M31.659 17.8379C29.6152 17.8379 27.9959 17.2688 26.801 16.1306C25.6062 14.9765 25.0088 13.3324 25.0088 11.1982V7.21441C25.0088 5.08022 25.6062 3.44401 26.801 2.30577C27.9959 1.15173 29.6152 0.574707 31.659 0.574707C33.6871 0.574707 35.2513 1.13592 36.3518 2.25835C37.4681 3.36496 38.0262 4.89052 38.0262 6.835V6.97728H34.9605V6.74015C34.9605 5.76 34.6854 4.95375 34.1351 4.3214C33.6006 3.68905 32.7752 3.37287 31.659 3.37287C30.5585 3.37287 29.6938 3.71276 29.0649 4.39254C28.4361 5.07232 28.1216 5.99713 28.1216 7.16699V11.2457C28.1216 12.3997 28.4361 13.3245 29.0649 14.0201C29.6938 14.6999 30.5585 15.0398 31.659 15.0398C32.7752 15.0398 33.6006 14.7236 34.1351 14.0913C34.6854 13.4431 34.9605 12.6368 34.9605 11.6725V11.2457H38.0262V11.5777C38.0262 13.5221 37.4681 15.0556 36.3518 16.178C35.2513 17.2846 33.6871 17.8379 31.659 17.8379Z" fill="#282828"/>
<path d="M39.9149 17.506V0.906692H42.8862V17.506H39.9149Z" fill="#282828"/>
<path d="M51.0023 17.8379C49.8389 17.8379 48.7934 17.6008 47.8658 17.1265C46.9383 16.6523 46.2072 15.9646 45.6727 15.0635C45.1381 14.1624 44.8709 13.0795 44.8709 11.8148V11.4354C44.8709 10.1707 45.1381 9.08776 45.6727 8.18666C46.2072 7.28555 46.9383 6.59787 47.8658 6.12361C48.7934 5.64934 49.8389 5.41221 51.0023 5.41221C52.1657 5.41221 53.2111 5.64934 54.1387 6.12361C55.0663 6.59787 55.7973 7.28555 56.3319 8.18666C56.8664 9.08776 57.1337 10.1707 57.1337 11.4354V11.8148C57.1337 13.0795 56.8664 14.1624 56.3319 15.0635C55.7973 15.9646 55.0663 16.6523 54.1387 17.1265C53.2111 17.6008 52.1657 17.8379 51.0023 17.8379ZM51.0023 15.1821C51.9141 15.1821 52.6687 14.8896 53.2662 14.3047C53.8636 13.7039 54.1623 12.8503 54.1623 11.7436V11.5065C54.1623 10.3999 53.8636 9.55412 53.2662 8.96919C52.6845 8.36846 51.9298 8.06809 51.0023 8.06809C50.0904 8.06809 49.3358 8.36846 48.7384 8.96919C48.141 9.55412 47.8422 10.3999 47.8422 11.5065V11.7436C47.8422 12.8503 48.141 13.7039 48.7384 14.3047C49.3358 14.8896 50.0904 15.1821 51.0023 15.1821Z" fill="#282828"/>
<path d="M59.1343 17.506V5.74419H62.0585V7.28555H62.483C62.6717 6.87453 63.0254 6.48721 63.5442 6.12361C64.063 5.74419 64.8491 5.55449 65.9024 5.55449C66.8143 5.55449 67.6082 5.76791 68.2843 6.19475C68.976 6.60577 69.5105 7.1828 69.8878 7.92581C70.2652 8.65302 70.4538 9.50669 70.4538 10.4868V17.506H67.4825V10.724C67.4825 9.83868 67.2624 9.17471 66.8222 8.73206C66.3977 8.28941 65.7845 8.06809 64.9827 8.06809C64.0709 8.06809 63.3634 8.37636 62.8603 8.99291C62.3572 9.59364 62.1057 10.4394 62.1057 11.5302V17.506H59.1343Z" fill="#282828"/>
<path d="M72.9239 17.506V5.74419H75.8953V17.506H72.9239ZM74.4096 4.36883C73.8751 4.36883 73.4192 4.19493 73.0418 3.84713C72.6803 3.49934 72.4995 3.04088 72.4995 2.47177C72.4995 1.90265 72.6803 1.44419 73.0418 1.0964C73.4192 0.748604 73.8751 0.574707 74.4096 0.574707C74.9599 0.574707 75.4158 0.748604 75.7774 1.0964C76.139 1.44419 76.3198 1.90265 76.3198 2.47177C76.3198 3.04088 76.139 3.49934 75.7774 3.84713C75.4158 4.19493 74.9599 4.36883 74.4096 4.36883Z" fill="#282828"/>
<path d="M80.3797 17.506V8.21037H77.4083V5.74419H80.3797V3.56258C80.3797 2.75632 80.6155 2.11607 81.0872 1.6418C81.5745 1.15173 82.2034 0.906692 82.9737 0.906692H86.0394V3.37287H84.0113C83.5711 3.37287 83.351 3.61 83.351 4.08427V5.74419H86.4167V8.21037H83.351V17.506H80.3797Z" fill="#282828"/>
<path d="M89.2485 22.2486V19.6402H95.6157C96.0559 19.6402 96.276 19.403 96.276 18.9288V15.9646H95.8515C95.7258 16.2334 95.5292 16.5021 95.262 16.7708C94.9947 17.0396 94.6331 17.2609 94.1772 17.4348C93.7213 17.6087 93.1396 17.6957 92.4321 17.6957C91.5203 17.6957 90.7185 17.4902 90.0267 17.0791C89.3507 16.6523 88.824 16.0674 88.4467 15.3243C88.0694 14.5813 87.8807 13.7277 87.8807 12.7633V5.74419H90.8521V12.5262C90.8521 13.4115 91.0643 14.0754 91.4888 14.5181C91.929 14.9607 92.55 15.1821 93.3518 15.1821C94.2637 15.1821 94.9711 14.8817 95.4742 14.281C95.9773 13.6644 96.2289 12.8107 96.2289 11.7199V5.74419H99.2002V19.5927C99.2002 20.399 98.9644 21.0392 98.4927 21.5135C98.0211 22.0036 97.3922 22.2486 96.6062 22.2486H89.2485Z" fill="#282828"/>
<path d="M9.98378 0C7.22307 0 4.99219 2.24162 4.99219 5H7.48799C7.48799 3.6243 8.6104 2.5 9.98378 2.5C11.3572 2.5 12.4796 3.6243 12.4796 5H14.9754C14.9754 2.24162 12.7445 0 9.98378 0Z" fill="#282828"/>
<path d="M17.4704 9.99951H19.9662C19.9662 7.24113 17.7353 4.99951 14.9746 4.99951V7.49951C16.348 7.49951 17.4704 8.62381 17.4704 9.99951Z" fill="#282828"/>
<path d="M14.9746 12.4995V14.9995C17.7353 14.9995 19.9662 12.7649 19.9662 9.99951H17.4704C17.4704 11.3752 16.348 12.4995 14.9746 12.4995Z" fill="#282828"/>
<path d="M9.98411 12.3327V14.6651C12.5636 14.6651 14.6411 12.5701 14.6411 10.0003C14.6411 7.41645 12.5636 5.33545 9.98411 5.33545C7.40466 5.33545 5.32715 7.41645 5.32715 10.0003C5.32715 12.5701 7.40466 14.6651 9.98411 14.6651V12.3327C8.70136 12.3327 7.65563 11.2852 7.65563 10.0003C7.65563 8.71534 8.70136 7.66785 9.98411 7.66785C11.2669 7.66785 12.3126 8.71534 12.3126 10.0003C12.3126 11.2852 11.2669 12.3327 9.98411 12.3327Z" fill="#282828"/>
<path d="M2.4958 9.99951H0C0 12.7649 2.23088 14.9995 4.9916 14.9995V12.4995C3.61821 12.4995 2.4958 11.3752 2.4958 9.99951Z" fill="#282828"/>
<path d="M0 9.99951H2.4958C2.4958 8.62381 3.61821 7.49951 4.9916 7.49951V4.99951C2.23088 4.99951 0 7.24113 0 9.99951Z" fill="#282828"/>
<path d="M9.98378 17.5C8.6104 17.5 7.48799 16.3757 7.48799 15H4.99219C4.99219 17.7654 7.22307 20 9.98378 20C12.7445 20 14.9754 17.7654 14.9754 15H12.4796C12.4796 16.3757 11.3572 17.5 9.98378 17.5Z" fill="#282828"/>
</svg>
