<svg width="17" height="15" viewBox="0 0 17 15" fill="none" xmlns="http://www.w3.org/2000/svg">
<path fill-rule="evenodd" clip-rule="evenodd" d="M2.29167 0C1.68388 0 1.10098 0.241443 0.671214 0.671214C0.241443 1.10098 0 1.68388 0 2.29167V12.2917C0 12.8995 0.241443 13.4823 0.671214 13.9121C1.10098 14.3419 1.68388 14.5833 2.29167 14.5833H8.125C8.73279 14.5833 9.31568 14.3419 9.74545 13.9121C10.1752 13.4823 10.4167 12.8995 10.4167 12.2917V10.625C10.4167 10.2798 10.1368 10 9.79167 10C9.44649 10 9.16667 10.2798 9.16667 10.625V12.2917C9.16667 12.5679 9.05692 12.8329 8.86157 13.0282C8.66622 13.2236 8.40127 13.3333 8.125 13.3333H2.29167C2.0154 13.3333 1.75045 13.2236 1.5551 13.0282C1.35975 12.8329 1.25 12.5679 1.25 12.2917V2.29167C1.25 2.0154 1.35975 1.75045 1.5551 1.5551C1.75045 1.35975 2.0154 1.25 2.29167 1.25H8.125C8.40127 1.25 8.66622 1.35975 8.86157 1.5551C9.05692 1.75045 9.16667 2.0154 9.16667 2.29167V3.95833C9.16667 4.30351 9.44649 4.58333 9.79167 4.58333C10.1368 4.58333 10.4167 4.30351 10.4167 3.95833V2.29167C10.4167 1.68388 10.1752 1.10098 9.74545 0.671214C9.31568 0.241443 8.73279 0 8.125 0H2.29167ZM13.5669 4.34972C13.3229 4.10565 12.9271 4.10565 12.6831 4.34972C12.439 4.5938 12.439 4.98953 12.6831 5.23361L14.1161 6.66667H3.95833C3.61316 6.66667 3.33333 6.94649 3.33333 7.29167C3.33333 7.63684 3.61316 7.91667 3.95833 7.91667H14.1161L12.6831 9.34972C12.439 9.5938 12.439 9.98953 12.6831 10.2336C12.9271 10.4777 13.3229 10.4777 13.5669 10.2336L16.0637 7.73688C16.0757 7.72505 16.0872 7.7127 16.0983 7.69988C16.181 7.60416 16.2299 7.48931 16.245 7.37098C16.2501 7.3311 16.2513 7.29103 16.2487 7.25132C16.2393 7.10507 16.1787 6.9615 16.0669 6.84972L13.5669 4.34972Z" fill="#5F6980"/>
</svg>
