<svg width="17" height="14" viewBox="0 0 17 14" fill="none" xmlns="http://www.w3.org/2000/svg">
<path fill-rule="evenodd" clip-rule="evenodd" d="M1.39973 2.44286C1.52993 2.01605 1.92682 1.70557 2.39623 1.70557H14.0629C14.5323 1.70557 14.9292 2.01605 15.0594 2.44286L8.22956 6.99608L1.39973 2.44286ZM0.104587 2.73579C0.104471 2.74245 0.104462 2.74912 0.104559 2.75578V11.0806C0.104559 12.3462 1.13057 13.3722 2.39623 13.3722H14.0629C15.3285 13.3722 16.3546 12.3462 16.3546 11.0806V2.7557M15.1046 3.91506V11.0806C15.1046 11.6559 14.6382 12.1222 14.0629 12.1222H2.39623C1.82093 12.1222 1.35456 11.6559 1.35456 11.0806V3.91506L7.88287 8.26726C8.09281 8.40722 8.36631 8.40722 8.57625 8.26726L15.1046 3.91506ZM16.3545 2.73587C16.3484 1.47545 15.3248 0.455566 14.0629 0.455566H2.39623C1.13439 0.455566 0.11075 1.4754 0.104587 2.73579" fill="#5F6980"/>
</svg>
