<svg width="16" height="16" viewBox="0 0 16 16" fill="none" xmlns="http://www.w3.org/2000/svg">
<path fill-rule="evenodd" clip-rule="evenodd" d="M7.969 6.30769e-05C7.8565 6.30769e-05 7.74456 0.00239394 7.6332 0.00701C7.56218 -0.00543678 7.48974 -0.00114231 7.42159 0.0185695C3.27577 0.299828 0 3.75189 0 7.96906C0 12.1862 3.27577 15.6383 7.42159 15.9195C7.48974 15.9393 7.56218 15.9436 7.6332 15.9311C7.74456 15.9357 7.8565 15.9381 7.969 15.9381C8.08141 15.9381 8.19329 15.9357 8.30457 15.9311C8.37554 15.9435 8.44793 15.9393 8.51604 15.9196C12.662 15.6385 15.938 12.1863 15.938 7.96906C15.938 3.75177 12.662 0.299628 8.51604 0.0185451C8.44793 -0.00114098 8.37554 -0.00542951 8.30457 0.00700076C8.19329 0.00239083 8.08141 6.30769e-05 7.969 6.30769e-05ZM8.12364 0.939722C8.07223 0.938613 8.02068 0.938055 7.969 0.938055C7.91722 0.938055 7.86558 0.938615 7.81407 0.939728C7.04965 2.21794 6.511 3.58992 6.19811 5.00028H9.73961C9.42672 3.58992 8.88806 2.21793 8.12364 0.939722ZM9.91366 5.93827H6.02406C5.82247 7.28449 5.8225 8.65407 6.02412 10.0003H9.91359C10.1152 8.65407 10.1152 7.28449 9.91366 5.93827ZM10.8614 10.0003C11.0499 8.6531 11.05 7.28546 10.8614 5.93827H14.7023C14.8959 6.58122 15 7.26299 15 7.96906C15 8.67529 14.8959 9.3572 14.7021 10.0003H10.8614ZM9.73951 10.9383H6.19821C6.51111 12.3485 7.04973 13.7203 7.81407 14.9984C7.86557 14.9995 7.91722 15.0001 7.969 15.0001C8.02068 15.0001 8.07223 14.9995 8.12364 14.9984C8.88798 13.7203 9.42661 12.3485 9.73951 10.9383ZM9.2684 14.8802C9.9406 13.6261 10.4174 12.2977 10.6988 10.9383H14.3441C13.4009 12.96 11.5243 14.4587 9.2684 14.8802ZM10.6989 5.00028C10.4175 3.64069 9.94067 2.31218 9.2684 1.05789C11.5244 1.47942 13.4012 2.97832 14.3443 5.00028H10.6989ZM6.66928 14.8802C5.9971 13.626 5.52031 12.2977 5.23889 10.9383H1.59386C2.53705 12.9599 4.41356 14.4586 6.66928 14.8802ZM5.07634 10.0003C4.88777 8.6531 4.88775 7.28546 5.07628 5.93827H1.23572C1.04207 6.58122 0.937992 7.26299 0.937992 7.96906C0.937992 8.67529 1.04212 9.3572 1.23585 10.0003H5.07634ZM5.2388 5.00028C5.5202 3.64071 5.99703 2.31222 6.66928 1.05794C4.4134 1.47955 2.53678 2.97841 1.59365 5.00028H5.2388Z" fill="#5F6980"/>
</svg>
