<svg width="18" height="20" viewBox="0 0 18 20" fill="none" xmlns="http://www.w3.org/2000/svg">
<path fill-rule="evenodd" clip-rule="evenodd" d="M13.5 0.75C13.5 0.335786 13.1642 0 12.75 0C12.3358 0 12 0.335786 12 0.75V2H5.5V0.75C5.5 0.335786 5.16421 0 4.75 0C4.33579 0 4 0.335786 4 0.75V2H2.75C1.23122 2 0 3.23122 0 4.75V8.75V16.75C0 18.2688 1.23122 19.5 2.75 19.5H14.75C16.2688 19.5 17.5 18.2688 17.5 16.75V8.75V4.75C17.5 3.23122 16.2688 2 14.75 2H13.5V0.75ZM16 8V4.75C16 4.05964 15.4404 3.5 14.75 3.5H13.5V4.75C13.5 5.16421 13.1642 5.5 12.75 5.5C12.3358 5.5 12 5.16421 12 4.75V3.5H5.5V4.75C5.5 5.16421 5.16421 5.5 4.75 5.5C4.33579 5.5 4 5.16421 4 4.75V3.5H2.75C2.05964 3.5 1.5 4.05964 1.5 4.75V8H16ZM1.5 9.5H16V16.75C16 17.4404 15.4404 18 14.75 18H2.75C2.05964 18 1.5 17.4404 1.5 16.75V9.5Z" fill="#5F6980"/>
</svg>
