<svg width="14" height="14" viewBox="0 0 14 14" fill="none" xmlns="http://www.w3.org/2000/svg">
<path fill-rule="evenodd" clip-rule="evenodd" d="M1.25 5.53563C1.25 3.16874 3.16874 1.25 5.53563 1.25C7.90251 1.25 9.82126 3.16874 9.82126 5.53563C9.82126 7.90251 7.90251 9.82126 5.53563 9.82126C3.16874 9.82126 1.25 7.90251 1.25 5.53563ZM5.53563 0C2.47838 0 0 2.47838 0 5.53563C0 8.59287 2.47838 11.0713 5.53563 11.0713C6.83907 11.0713 8.03729 10.6208 8.98309 9.86697L12.8101 13.694C13.0542 13.9381 13.4499 13.9381 13.694 13.694C13.9381 13.4499 13.9381 13.0542 13.694 12.8101L9.86697 8.98309C10.6208 8.03729 11.0713 6.83907 11.0713 5.53563C11.0713 2.47838 8.59287 0 5.53563 0Z" fill="#282828"/>
</svg>
