<svg width="17" height="17" viewBox="0 0 17 17" fill="none" xmlns="http://www.w3.org/2000/svg">
<path d="M12.6033 7.77667C12.4603 6.96508 12.0798 6.21415 11.5099 5.61882C10.9401 5.02349 10.2065 4.6105 9.40197 4.43209C8.59742 4.25368 7.75804 4.31786 6.98996 4.6165C6.22188 4.91515 5.55961 5.43485 5.0869 6.10989C4.61419 6.78492 4.35226 7.58498 4.33425 8.40887C4.31624 9.23277 4.54295 10.0435 4.98571 10.7386C5.42847 11.4336 6.06739 11.9818 6.82168 12.3137C7.57597 12.6456 8.41175 12.7464 9.22333 12.6033M1 8.5C1 9.98336 1.43987 11.4334 2.26398 12.6668C3.08809 13.9001 4.25943 14.8614 5.62987 15.4291C7.00032 15.9968 8.50832 16.1453 9.96318 15.8559C11.418 15.5665 12.7544 14.8522 13.8033 13.8033C14.8522 12.7544 15.5665 11.418 15.8559 9.96318C16.1453 8.50832 15.9968 7.00032 15.4291 5.62987C14.8614 4.25943 13.9001 3.08809 12.6668 2.26398C11.4334 1.43987 9.98336 1 8.5 1M7.66667 8.5C7.66667 8.72101 7.75446 8.93297 7.91074 9.08926C8.06702 9.24554 8.27899 9.33333 8.5 9.33333C8.72101 9.33333 8.93297 9.24554 9.08926 9.08926C9.24554 8.93297 9.33333 8.72101 9.33333 8.5C9.33333 8.27899 9.24554 8.06702 9.08926 7.91074C8.93297 7.75446 8.72101 7.66667 8.5 7.66667C8.27899 7.66667 8.06702 7.75446 7.91074 7.91074C7.75446 8.06702 7.66667 8.27899 7.66667 8.5Z" stroke="#282828" stroke-width="1.25" stroke-linecap="round" stroke-linejoin="round"/>
</svg>
