<svg width="24" height="24" viewBox="0 0 24 24" fill="none" xmlns="http://www.w3.org/2000/svg">
<path d="M11.0012 11.9997C11.0012 12.2649 11.1065 12.5193 11.2941 12.7068C11.4816 12.8943 11.736 12.9997 12.0012 12.9997C12.2664 12.9997 12.5208 12.8943 12.7083 12.7068C12.8958 12.5193 13.0012 12.2649 13.0012 11.9997C13.0012 11.7345 12.8958 11.4801 12.7083 11.2926C12.5208 11.1051 12.2664 10.9997 12.0012 10.9997C11.736 10.9997 11.4816 11.1051 11.2941 11.2926C11.1065 11.4801 11.0012 11.7345 11.0012 11.9997ZM11.0012 18.9997C11.0012 19.2649 11.1065 19.5193 11.2941 19.7068C11.4816 19.8943 11.736 19.9997 12.0012 19.9997C12.2664 19.9997 12.5208 19.8943 12.7083 19.7068C12.8958 19.5193 13.0012 19.2649 13.0012 18.9997C13.0012 18.7345 12.8958 18.4801 12.7083 18.2926C12.5208 18.1051 12.2664 17.9997 12.0012 17.9997C11.736 17.9997 11.4816 18.1051 11.2941 18.2926C11.1065 18.4801 11.0012 18.7345 11.0012 18.9997ZM11.0012 4.99969C11.0012 5.26491 11.1065 5.51926 11.2941 5.7068C11.4816 5.89434 11.736 5.99969 12.0012 5.99969C12.2664 5.99969 12.5208 5.89434 12.7083 5.7068C12.8958 5.51926 13.0012 5.26491 13.0012 4.99969C13.0012 4.73448 12.8958 4.48012 12.7083 4.29259C12.5208 4.10505 12.2664 3.99969 12.0012 3.99969C11.736 3.99969 11.4816 4.10505 11.2941 4.29259C11.1065 4.48012 11.0012 4.73448 11.0012 4.99969Z" stroke="#9D9FA2" stroke-width="1.38462" stroke-linecap="round" stroke-linejoin="round"/>
</svg>
