<svg width="12" height="17" viewBox="0 0 12 17" fill="none" xmlns="http://www.w3.org/2000/svg">
<path fill-rule="evenodd" clip-rule="evenodd" d="M2.94499 4.66683C2.94499 3.17106 4.15755 1.9585 5.65332 1.9585C7.14909 1.9585 8.36165 3.17106 8.36165 4.66683C8.36165 6.1626 7.14909 7.37516 5.65332 7.37516C4.15755 7.37516 2.94499 6.1626 2.94499 4.66683ZM5.65332 0.708496C3.46719 0.708496 1.69499 2.4807 1.69499 4.66683C1.69499 6.85296 3.46719 8.62516 5.65332 8.62516C7.83945 8.62516 9.61165 6.85296 9.61165 4.66683C9.61165 2.4807 7.83945 0.708496 5.65332 0.708496ZM2.07157 11.8322C2.57948 11.3242 3.26836 11.0389 3.98665 11.0389H7.31999C8.03828 11.0389 8.72716 11.3242 9.23507 11.8322C9.74298 12.3401 10.0283 13.0289 10.0283 13.7472V15.4139C10.0283 15.7591 10.3081 16.0389 10.6533 16.0389C10.9985 16.0389 11.2783 15.7591 11.2783 15.4139V13.7472C11.2783 12.6974 10.8613 11.6906 10.119 10.9483C9.37662 10.2059 8.3698 9.7889 7.31999 9.7889H3.98665C2.93684 9.7889 1.93002 10.2059 1.18769 10.9483C0.445358 11.6906 0.0283203 12.6974 0.0283203 13.7472V15.4139C0.0283203 15.7591 0.308142 16.0389 0.65332 16.0389C0.998498 16.0389 1.27832 15.7591 1.27832 15.4139V13.7472C1.27832 13.0289 1.56366 12.3401 2.07157 11.8322Z" fill="#5F6980"/>
</svg>
