<svg width="281" height="242" viewBox="0 0 281 242" fill="none" xmlns="http://www.w3.org/2000/svg">
<path d="M1 136.467C8.58904 131.132 55.6504 147.139 64.969 126.576C76.6173 100.872 85.8403 18.3263 96.3366 64.69C107.591 114.404 126.621 -41.8767 142.22 14.4136C149.267 39.8459 164.446 118.038 179.431 118.038C191.608 118.038 191.591 44.4106 215.947 44.4106C240.302 44.4106 238.113 136.467 281 136.467" stroke="#20C997" stroke-width="3"/>
<path d="M64.969 126.576C55.6504 147.139 8.58904 131.132 1 136.467V242H281V136.467C238.113 136.467 240.302 44.4106 215.947 44.4106C191.591 44.4106 191.608 118.038 179.431 118.038C164.446 118.038 149.267 39.8459 142.22 14.4136C126.621 -41.8767 107.591 114.404 96.3366 64.69C85.8403 18.3263 76.6173 100.872 64.969 126.576Z" fill="url(#paint0_linear_0_166)"/>
<path d="M34.9552 117.52C25.7612 133.621 8.48756 146.001 1 150.178V242H281V93.9768C238.687 93.9768 238.164 190.43 214.134 190.43C190.104 190.43 189.06 86.5901 177.045 86.5901C165.03 86.5901 168.164 165.367 140.478 161.949C112.791 158.532 99.209 124.735 82.4925 93.9768C65.7761 63.2183 46.4478 97.3945 34.9552 117.52Z" fill="url(#paint1_linear_0_166)"/>
<path d="M1 150.178C8.48756 146.001 25.7612 133.621 34.9552 117.52C46.4478 97.3945 65.7761 63.2183 82.4925 93.9768C99.209 124.735 112.791 158.532 140.478 161.949C168.164 165.367 165.03 87.0819 177.045 87.0819C189.06 87.0819 190.104 190.43 214.134 190.43C238.164 190.43 238.687 93.9768 281 93.9768" stroke="#679CF6" stroke-width="3"/>
<defs>
<linearGradient id="paint0_linear_0_166" x1="141" y1="2" x2="141" y2="242" gradientUnits="userSpaceOnUse">
<stop stop-color="#20C997" stop-opacity="0.13"/>
<stop offset="1" stop-color="#20C997" stop-opacity="0"/>
</linearGradient>
<linearGradient id="paint1_linear_0_166" x1="141" y1="81.6723" x2="141" y2="242" gradientUnits="userSpaceOnUse">
<stop stop-color="#4285F4" stop-opacity="0.25"/>
<stop offset="1" stop-color="#4285F4" stop-opacity="0"/>
</linearGradient>
</defs>
</svg>
