<svg width="1044" height="162" viewBox="0 0 1044 162" fill="none" xmlns="http://www.w3.org/2000/svg">
<path d="M127.483 37.5204C93.2354 53.6212 28.8912 66.0006 1 70.1777V162H1044V13.9768C886.382 13.9768 884.437 110.43 794.925 110.43C705.414 110.43 701.522 6.59008 656.767 6.59008C612.011 6.59008 623.687 85.3671 520.554 81.9495C417.422 78.5319 366.828 44.7354 304.56 13.9768C242.626 -16.6161 171.068 17.0283 128.177 37.1941L127.483 37.5204Z" fill="url(#paint0_linear_0_611)"/>
<path d="M1 70.1777C28.8912 66.0006 93.2354 53.6212 127.483 37.5204C170.293 17.3944 242.291 -16.7817 304.56 13.9768C366.828 44.7354 417.422 78.5319 520.554 81.9495C623.687 85.3671 612.011 7.08185 656.767 7.08185C701.522 7.08185 705.414 110.43 794.925 110.43C884.437 110.43 886.382 13.9768 1044 13.9768" stroke="#679CF6" stroke-width="3"/>
<defs>
<linearGradient id="paint0_linear_0_611" x1="522.5" y1="1.67233" x2="522.5" y2="162" gradientUnits="userSpaceOnUse">
<stop stop-color="#4285F4" stop-opacity="0.25"/>
<stop offset="1" stop-color="#4285F4" stop-opacity="0"/>
</linearGradient>
</defs>
</svg>
