<svg width="1144" height="288" viewBox="0 0 1144 288" fill="none" xmlns="http://www.w3.org/2000/svg" preserveAspectRatio="none">
<path d="M24.6989 14.2102V13.3409L28.5341 7.27273H29.1648V8.61932H28.7386L25.8409 13.2045V13.2727H31.0057V14.2102H24.6989ZM28.8068 16V13.946V13.5412V7.27273H29.8125V16H28.8068ZM35.4492 16.1193C34.8072 16.1193 34.2603 15.9446 33.8086 15.5952C33.3569 15.2429 33.0117 14.733 32.7731 14.0653C32.5344 13.3949 32.4151 12.5852 32.4151 11.6364C32.4151 10.6932 32.5344 9.88778 32.7731 9.22017C33.0146 8.54972 33.3612 8.03835 33.8129 7.68608C34.2674 7.33097 34.8129 7.15341 35.4492 7.15341C36.0856 7.15341 36.6296 7.33097 37.0813 7.68608C37.5359 8.03835 37.8825 8.54972 38.1211 9.22017C38.3626 9.88778 38.4833 10.6932 38.4833 11.6364C38.4833 12.5852 38.364 13.3949 38.1254 14.0653C37.8867 14.733 37.5415 15.2429 37.0898 15.5952C36.6381 15.9446 36.0913 16.1193 35.4492 16.1193ZM35.4492 15.1818C36.0856 15.1818 36.5799 14.875 36.9322 14.2614C37.2844 13.6477 37.4606 12.7727 37.4606 11.6364C37.4606 10.8807 37.3796 10.2372 37.2177 9.70597C37.0586 9.17472 36.8285 8.76989 36.5273 8.49148C36.229 8.21307 35.8697 8.07386 35.4492 8.07386C34.8185 8.07386 34.3256 8.38494 33.9705 9.0071C33.6154 9.62642 33.4379 10.5028 33.4379 11.6364C33.4379 12.392 33.5174 13.0341 33.6765 13.5625C33.8356 14.0909 34.0643 14.4929 34.3626 14.7685C34.6637 15.044 35.0259 15.1818 35.4492 15.1818ZM42.9492 16.1193C42.3072 16.1193 41.7603 15.9446 41.3086 15.5952C40.8569 15.2429 40.5117 14.733 40.2731 14.0653C40.0344 13.3949 39.9151 12.5852 39.9151 11.6364C39.9151 10.6932 40.0344 9.88778 40.2731 9.22017C40.5146 8.54972 40.8612 8.03835 41.3129 7.68608C41.7674 7.33097 42.3129 7.15341 42.9492 7.15341C43.5856 7.15341 44.1296 7.33097 44.5813 7.68608C45.0359 8.03835 45.3825 8.54972 45.6211 9.22017C45.8626 9.88778 45.9833 10.6932 45.9833 11.6364C45.9833 12.5852 45.864 13.3949 45.6254 14.0653C45.3867 14.733 45.0415 15.2429 44.5898 15.5952C44.1381 15.9446 43.5913 16.1193 42.9492 16.1193ZM42.9492 15.1818C43.5856 15.1818 44.0799 14.875 44.4322 14.2614C44.7844 13.6477 44.9606 12.7727 44.9606 11.6364C44.9606 10.8807 44.8796 10.2372 44.7177 9.70597C44.5586 9.17472 44.3285 8.76989 44.0273 8.49148C43.729 8.21307 43.3697 8.07386 42.9492 8.07386C42.3185 8.07386 41.8256 8.38494 41.4705 9.0071C41.1154 9.62642 40.9379 10.5028 40.9379 11.6364C40.9379 12.392 41.0174 13.0341 41.1765 13.5625C41.3356 14.0909 41.5643 14.4929 41.8626 14.7685C42.1637 15.044 42.5259 15.1818 42.9492 15.1818Z" fill="#9D9FA2"/>
<path d="M27.8523 76.1193C27.2898 76.1193 26.7884 76.0227 26.348 75.8295C25.9105 75.6364 25.5625 75.3679 25.304 75.0241C25.0483 74.6776 24.9091 74.2756 24.8864 73.8182H25.9602C25.983 74.0994 26.0795 74.3423 26.25 74.5469C26.4205 74.7486 26.6435 74.9048 26.919 75.0156C27.1946 75.1264 27.5 75.1818 27.8352 75.1818C28.2102 75.1818 28.5426 75.1165 28.8324 74.9858C29.1222 74.8551 29.3494 74.6733 29.5142 74.4403C29.679 74.2074 29.7614 73.9375 29.7614 73.6307C29.7614 73.3097 29.6818 73.027 29.5227 72.7827C29.3636 72.5355 29.1307 72.3423 28.8239 72.2031C28.517 72.0639 28.142 71.9943 27.6989 71.9943H27V71.0568H27.6989C28.0455 71.0568 28.3494 70.9943 28.6108 70.8693C28.875 70.7443 29.081 70.5682 29.2287 70.3409C29.3793 70.1136 29.4545 69.8466 29.4545 69.5398C29.4545 69.2443 29.3892 68.9872 29.2585 68.7685C29.1278 68.5497 28.9432 68.3793 28.7045 68.2571C28.4688 68.1349 28.1903 68.0739 27.8693 68.0739C27.5682 68.0739 27.2841 68.1293 27.017 68.2401C26.7528 68.348 26.5369 68.5057 26.3693 68.7131C26.2017 68.9176 26.1108 69.1648 26.0966 69.4545H25.0739C25.0909 68.9972 25.2287 68.5966 25.4872 68.2528C25.7457 67.9062 26.0838 67.6364 26.5014 67.4432C26.9219 67.25 27.3835 67.1534 27.8864 67.1534C28.4261 67.1534 28.8892 67.2628 29.2756 67.4815C29.6619 67.6974 29.9588 67.983 30.1662 68.3381C30.3736 68.6932 30.4773 69.0767 30.4773 69.4886C30.4773 69.9801 30.348 70.3991 30.0895 70.7457C29.8338 71.0923 29.4858 71.3324 29.0455 71.4659V71.5341C29.5966 71.625 30.027 71.8594 30.3366 72.2372C30.6463 72.6122 30.8011 73.0767 30.8011 73.6307C30.8011 74.1051 30.6719 74.5312 30.4134 74.9091C30.1577 75.2841 29.8082 75.5795 29.3651 75.7955C28.9219 76.0114 28.4176 76.1193 27.8523 76.1193ZM35.3906 76.1193C34.7486 76.1193 34.2017 75.9446 33.75 75.5952C33.2983 75.2429 32.9531 74.733 32.7145 74.0653C32.4759 73.3949 32.3565 72.5852 32.3565 71.6364C32.3565 70.6932 32.4759 69.8878 32.7145 69.2202C32.956 68.5497 33.3026 68.0384 33.7543 67.6861C34.2088 67.331 34.7543 67.1534 35.3906 67.1534C36.027 67.1534 36.571 67.331 37.0227 67.6861C37.4773 68.0384 37.8239 68.5497 38.0625 69.2202C38.304 69.8878 38.4247 70.6932 38.4247 71.6364C38.4247 72.5852 38.3054 73.3949 38.0668 74.0653C37.8281 74.733 37.483 75.2429 37.0312 75.5952C36.5795 75.9446 36.0327 76.1193 35.3906 76.1193ZM35.3906 75.1818C36.027 75.1818 36.5213 74.875 36.8736 74.2614C37.2259 73.6477 37.402 72.7727 37.402 71.6364C37.402 70.8807 37.321 70.2372 37.1591 69.706C37 69.1747 36.7699 68.7699 36.4688 68.4915C36.1705 68.2131 35.8111 68.0739 35.3906 68.0739C34.7599 68.0739 34.267 68.3849 33.9119 69.0071C33.5568 69.6264 33.3793 70.5028 33.3793 71.6364C33.3793 72.392 33.4588 73.0341 33.6179 73.5625C33.777 74.0909 34.0057 74.4929 34.304 74.7685C34.6051 75.044 34.9673 75.1818 35.3906 75.1818ZM42.8906 76.1193C42.2486 76.1193 41.7017 75.9446 41.25 75.5952C40.7983 75.2429 40.4531 74.733 40.2145 74.0653C39.9759 73.3949 39.8565 72.5852 39.8565 71.6364C39.8565 70.6932 39.9759 69.8878 40.2145 69.2202C40.456 68.5497 40.8026 68.0384 41.2543 67.6861C41.7088 67.331 42.2543 67.1534 42.8906 67.1534C43.527 67.1534 44.071 67.331 44.5227 67.6861C44.9773 68.0384 45.3239 68.5497 45.5625 69.2202C45.804 69.8878 45.9247 70.6932 45.9247 71.6364C45.9247 72.5852 45.8054 73.3949 45.5668 74.0653C45.3281 74.733 44.983 75.2429 44.5312 75.5952C44.0795 75.9446 43.5327 76.1193 42.8906 76.1193ZM42.8906 75.1818C43.527 75.1818 44.0213 74.875 44.3736 74.2614C44.7259 73.6477 44.902 72.7727 44.902 71.6364C44.902 70.8807 44.821 70.2372 44.6591 69.706C44.5 69.1747 44.2699 68.7699 43.9688 68.4915C43.6705 68.2131 43.3111 68.0739 42.8906 68.0739C42.2599 68.0739 41.767 68.3849 41.4119 69.0071C41.0568 69.6264 40.8793 70.5028 40.8793 71.6364C40.8793 72.392 40.9588 73.0341 41.1179 73.5625C41.277 74.0909 41.5057 74.4929 41.804 74.7685C42.1051 75.044 42.4673 75.1818 42.8906 75.1818Z" fill="#9D9FA2"/>
<path d="M24.9034 136V135.233L27.7841 132.08C28.1222 131.71 28.4006 131.389 28.6193 131.116C28.8381 130.841 29 130.582 29.1051 130.341C29.2131 130.097 29.267 129.841 29.267 129.574C29.267 129.267 29.1932 129.001 29.0455 128.777C28.9006 128.553 28.7017 128.379 28.4489 128.257C28.196 128.135 27.9119 128.074 27.5966 128.074C27.2614 128.074 26.9688 128.143 26.7188 128.283C26.4716 128.419 26.2798 128.611 26.1435 128.858C26.0099 129.105 25.9432 129.395 25.9432 129.727H24.9375C24.9375 129.216 25.0554 128.767 25.2912 128.381C25.527 127.994 25.848 127.693 26.2543 127.477C26.6634 127.261 27.1222 127.153 27.6307 127.153C28.142 127.153 28.5952 127.261 28.9901 127.477C29.3849 127.693 29.6946 127.984 29.919 128.351C30.1435 128.717 30.2557 129.125 30.2557 129.574C30.2557 129.895 30.1974 130.209 30.081 130.516C29.9673 130.82 29.7685 131.159 29.4844 131.534C29.2031 131.906 28.8125 132.361 28.3125 132.898L26.3523 134.994V135.062H30.4091V136H24.9034ZM35.0156 136.119C34.3736 136.119 33.8267 135.945 33.375 135.595C32.9233 135.243 32.5781 134.733 32.3395 134.065C32.1009 133.395 31.9815 132.585 31.9815 131.636C31.9815 130.693 32.1009 129.888 32.3395 129.22C32.581 128.55 32.9276 128.038 33.3793 127.686C33.8338 127.331 34.3793 127.153 35.0156 127.153C35.652 127.153 36.196 127.331 36.6477 127.686C37.1023 128.038 37.4489 128.55 37.6875 129.22C37.929 129.888 38.0497 130.693 38.0497 131.636C38.0497 132.585 37.9304 133.395 37.6918 134.065C37.4531 134.733 37.108 135.243 36.6562 135.595C36.2045 135.945 35.6577 136.119 35.0156 136.119ZM35.0156 135.182C35.652 135.182 36.1463 134.875 36.4986 134.261C36.8509 133.648 37.027 132.773 37.027 131.636C37.027 130.881 36.946 130.237 36.7841 129.706C36.625 129.175 36.3949 128.77 36.0938 128.491C35.7955 128.213 35.4361 128.074 35.0156 128.074C34.3849 128.074 33.892 128.385 33.5369 129.007C33.1818 129.626 33.0043 130.503 33.0043 131.636C33.0043 132.392 33.0838 133.034 33.2429 133.562C33.402 134.091 33.6307 134.493 33.929 134.768C34.2301 135.044 34.5923 135.182 35.0156 135.182ZM42.5156 136.119C41.8736 136.119 41.3267 135.945 40.875 135.595C40.4233 135.243 40.0781 134.733 39.8395 134.065C39.6009 133.395 39.4815 132.585 39.4815 131.636C39.4815 130.693 39.6009 129.888 39.8395 129.22C40.081 128.55 40.4276 128.038 40.8793 127.686C41.3338 127.331 41.8793 127.153 42.5156 127.153C43.152 127.153 43.696 127.331 44.1477 127.686C44.6023 128.038 44.9489 128.55 45.1875 129.22C45.429 129.888 45.5497 130.693 45.5497 131.636C45.5497 132.585 45.4304 133.395 45.1918 134.065C44.9531 134.733 44.608 135.243 44.1562 135.595C43.7045 135.945 43.1577 136.119 42.5156 136.119ZM42.5156 135.182C43.152 135.182 43.6463 134.875 43.9986 134.261C44.3509 133.648 44.527 132.773 44.527 131.636C44.527 130.881 44.446 130.237 44.2841 129.706C44.125 129.175 43.8949 128.77 43.5938 128.491C43.2955 128.213 42.9361 128.074 42.5156 128.074C41.8849 128.074 41.392 128.385 41.0369 129.007C40.6818 129.626 40.5043 130.503 40.5043 131.636C40.5043 132.392 40.5838 133.034 40.7429 133.562C40.902 134.091 41.1307 134.493 41.429 134.768C41.7301 135.044 42.0923 135.182 42.5156 135.182Z" fill="#9D9FA2"/>
<path d="M27.9716 187.273V196H26.9148V188.381H26.8636L24.733 189.795V188.722L26.9148 187.273H27.9716ZM33.3281 196.119C32.6861 196.119 32.1392 195.945 31.6875 195.595C31.2358 195.243 30.8906 194.733 30.652 194.065C30.4134 193.395 30.294 192.585 30.294 191.636C30.294 190.693 30.4134 189.888 30.652 189.22C30.8935 188.55 31.2401 188.038 31.6918 187.686C32.1463 187.331 32.6918 187.153 33.3281 187.153C33.9645 187.153 34.5085 187.331 34.9602 187.686C35.4148 188.038 35.7614 188.55 36 189.22C36.2415 189.888 36.3622 190.693 36.3622 191.636C36.3622 192.585 36.2429 193.395 36.0043 194.065C35.7656 194.733 35.4205 195.243 34.9688 195.595C34.517 195.945 33.9702 196.119 33.3281 196.119ZM33.3281 195.182C33.9645 195.182 34.4588 194.875 34.8111 194.261C35.1634 193.648 35.3395 192.773 35.3395 191.636C35.3395 190.881 35.2585 190.237 35.0966 189.706C34.9375 189.175 34.7074 188.77 34.4062 188.491C34.108 188.213 33.7486 188.074 33.3281 188.074C32.6974 188.074 32.2045 188.385 31.8494 189.007C31.4943 189.626 31.3168 190.503 31.3168 191.636C31.3168 192.392 31.3963 193.034 31.5554 193.562C31.7145 194.091 31.9432 194.493 32.2415 194.768C32.5426 195.044 32.9048 195.182 33.3281 195.182ZM40.8281 196.119C40.1861 196.119 39.6392 195.945 39.1875 195.595C38.7358 195.243 38.3906 194.733 38.152 194.065C37.9134 193.395 37.794 192.585 37.794 191.636C37.794 190.693 37.9134 189.888 38.152 189.22C38.3935 188.55 38.7401 188.038 39.1918 187.686C39.6463 187.331 40.1918 187.153 40.8281 187.153C41.4645 187.153 42.0085 187.331 42.4602 187.686C42.9148 188.038 43.2614 188.55 43.5 189.22C43.7415 189.888 43.8622 190.693 43.8622 191.636C43.8622 192.585 43.7429 193.395 43.5043 194.065C43.2656 194.733 42.9205 195.243 42.4688 195.595C42.017 195.945 41.4702 196.119 40.8281 196.119ZM40.8281 195.182C41.4645 195.182 41.9588 194.875 42.3111 194.261C42.6634 193.648 42.8395 192.773 42.8395 191.636C42.8395 190.881 42.7585 190.237 42.5966 189.706C42.4375 189.175 42.2074 188.77 41.9062 188.491C41.608 188.213 41.2486 188.074 40.8281 188.074C40.1974 188.074 39.7045 188.385 39.3494 189.007C38.9943 189.626 38.8168 190.503 38.8168 191.636C38.8168 192.392 38.8963 193.034 39.0554 193.562C39.2145 194.091 39.4432 194.493 39.7415 194.768C40.0426 195.044 40.4048 195.182 40.8281 195.182Z" fill="#9D9FA2"/>
<path d="M27.75 256.119C27.108 256.119 26.5611 255.945 26.1094 255.595C25.6577 255.243 25.3125 254.733 25.0739 254.065C24.8352 253.395 24.7159 252.585 24.7159 251.636C24.7159 250.693 24.8352 249.888 25.0739 249.22C25.3153 248.55 25.6619 248.038 26.1136 247.686C26.5682 247.331 27.1136 247.153 27.75 247.153C28.3864 247.153 28.9304 247.331 29.3821 247.686C29.8366 248.038 30.1832 248.55 30.4219 249.22C30.6634 249.888 30.7841 250.693 30.7841 251.636C30.7841 252.585 30.6648 253.395 30.4261 254.065C30.1875 254.733 29.8423 255.243 29.3906 255.595C28.9389 255.945 28.392 256.119 27.75 256.119ZM27.75 255.182C28.3864 255.182 28.8807 254.875 29.233 254.261C29.5852 253.648 29.7614 252.773 29.7614 251.636C29.7614 250.881 29.6804 250.237 29.5185 249.706C29.3594 249.175 29.1293 248.77 28.8281 248.491C28.5298 248.213 28.1705 248.074 27.75 248.074C27.1193 248.074 26.6264 248.385 26.2713 249.007C25.9162 249.626 25.7386 250.503 25.7386 251.636C25.7386 252.392 25.8182 253.034 25.9773 253.562C26.1364 254.091 26.3651 254.493 26.6634 254.768C26.9645 255.044 27.3267 255.182 27.75 255.182Z" fill="#9D9FA2"/>
<path d="M83.0073 275.455C82.9561 275.023 82.7488 274.688 82.3851 274.449C82.0215 274.21 81.5755 274.091 81.0471 274.091C80.6607 274.091 80.3226 274.153 80.0328 274.278C79.7459 274.403 79.5215 274.575 79.3596 274.794C79.2005 275.013 79.1209 275.261 79.1209 275.54C79.1209 275.773 79.1763 275.973 79.2871 276.141C79.4007 276.305 79.5456 276.443 79.7218 276.554C79.8979 276.662 80.0826 276.751 80.2757 276.822C80.4689 276.891 80.6465 276.946 80.8084 276.989L81.6948 277.227C81.9221 277.287 82.1749 277.369 82.4533 277.474C82.7346 277.58 83.003 277.723 83.2587 277.905C83.5172 278.084 83.7303 278.314 83.8979 278.595C84.0655 278.876 84.1493 279.222 84.1493 279.631C84.1493 280.102 84.0257 280.528 83.7786 280.909C83.5343 281.29 83.1763 281.592 82.7047 281.817C82.236 282.041 81.6664 282.153 80.9959 282.153C80.3709 282.153 79.8297 282.053 79.3723 281.851C78.9178 281.649 78.5598 281.368 78.2985 281.007C78.04 280.646 77.8936 280.227 77.8596 279.75H78.9505C78.9789 280.08 79.0897 280.352 79.2828 280.568C79.4789 280.781 79.726 280.94 80.0243 281.045C80.3255 281.148 80.6493 281.199 80.9959 281.199C81.3993 281.199 81.7615 281.134 82.0826 281.003C82.4036 280.869 82.6578 280.685 82.8453 280.449C83.0328 280.21 83.1266 279.932 83.1266 279.614C83.1266 279.324 83.0456 279.088 82.8837 278.906C82.7218 278.724 82.5087 278.577 82.2445 278.463C81.9803 278.349 81.6948 278.25 81.388 278.165L80.3141 277.858C79.6323 277.662 79.0925 277.382 78.6948 277.018C78.2971 276.655 78.0982 276.179 78.0982 275.591C78.0982 275.102 78.2303 274.676 78.4945 274.312C78.7615 273.946 79.1195 273.662 79.5684 273.46C80.0201 273.256 80.5243 273.153 81.0811 273.153C81.6436 273.153 82.1436 273.254 82.5811 273.456C83.0186 273.655 83.3652 273.928 83.6209 274.274C83.8794 274.621 84.0158 275.014 84.03 275.455H83.0073ZM89.8755 279.324V275.455H90.8812V282H89.8755V280.892H89.8074C89.6539 281.224 89.4153 281.507 89.0914 281.74C88.7676 281.97 88.3585 282.085 87.8642 282.085C87.4551 282.085 87.0914 281.996 86.7733 281.817C86.4551 281.635 86.2051 281.362 86.0233 280.999C85.8414 280.632 85.7505 280.17 85.7505 279.614V275.455H86.7562V279.545C86.7562 280.023 86.8897 280.403 87.1568 280.688C87.4267 280.972 87.7704 281.114 88.188 281.114C88.438 281.114 88.6923 281.05 88.9508 280.922C89.2122 280.794 89.4309 280.598 89.6071 280.334C89.786 280.07 89.8755 279.733 89.8755 279.324ZM93.7289 278.062V282H92.7232V275.455H93.6948V276.477H93.78C93.9334 276.145 94.1664 275.878 94.4789 275.676C94.7914 275.472 95.1948 275.369 95.6891 275.369C96.1323 275.369 96.5201 275.46 96.8525 275.642C97.1848 275.821 97.4434 276.094 97.628 276.46C97.8127 276.824 97.905 277.284 97.905 277.841V282H96.8993V277.909C96.8993 277.395 96.7658 276.994 96.4988 276.707C96.2317 276.418 95.8652 276.273 95.3993 276.273C95.0783 276.273 94.7914 276.342 94.5385 276.482C94.2885 276.621 94.0911 276.824 93.9462 277.091C93.8013 277.358 93.7289 277.682 93.7289 278.062Z" fill="#9D9FA2"/>
<path d="M248.962 273.273H250.224L253.19 280.517H253.292L256.258 273.273H257.519V282H256.531V275.369H256.445L253.718 282H252.764L250.036 275.369H249.951V282H248.962V273.273ZM262.161 282.136C261.57 282.136 261.052 281.996 260.606 281.714C260.162 281.433 259.816 281.04 259.566 280.534C259.319 280.028 259.195 279.437 259.195 278.761C259.195 278.08 259.319 277.484 259.566 276.976C259.816 276.467 260.162 276.072 260.606 275.791C261.052 275.51 261.57 275.369 262.161 275.369C262.752 275.369 263.269 275.51 263.712 275.791C264.158 276.072 264.505 276.467 264.752 276.976C265.002 277.484 265.127 278.08 265.127 278.761C265.127 279.437 265.002 280.028 264.752 280.534C264.505 281.04 264.158 281.433 263.712 281.714C263.269 281.996 262.752 282.136 262.161 282.136ZM262.161 281.233C262.61 281.233 262.979 281.118 263.269 280.888C263.559 280.658 263.773 280.355 263.912 279.98C264.052 279.605 264.121 279.199 264.121 278.761C264.121 278.324 264.052 277.916 263.912 277.538C263.773 277.161 263.559 276.855 263.269 276.622C262.979 276.389 262.61 276.273 262.161 276.273C261.712 276.273 261.343 276.389 261.053 276.622C260.763 276.855 260.549 277.161 260.409 277.538C260.27 277.916 260.201 278.324 260.201 278.761C260.201 279.199 260.27 279.605 260.409 279.98C260.549 280.355 260.763 280.658 261.053 280.888C261.343 281.118 261.712 281.233 262.161 281.233ZM267.668 278.062V282H266.662V275.455H267.634V276.477H267.719C267.872 276.145 268.105 275.878 268.418 275.676C268.73 275.472 269.134 275.369 269.628 275.369C270.071 275.369 270.459 275.46 270.791 275.642C271.124 275.821 271.382 276.094 271.567 276.46C271.751 276.824 271.844 277.284 271.844 277.841V282H270.838V277.909C270.838 277.395 270.705 276.994 270.438 276.707C270.17 276.418 269.804 276.273 269.338 276.273C269.017 276.273 268.73 276.342 268.477 276.482C268.227 276.621 268.03 276.824 267.885 277.091C267.74 277.358 267.668 277.682 267.668 278.062Z" fill="#9D9FA2"/>
<path d="M422.363 274.21V273.273H428.909V274.21H426.165V282H425.108V274.21H422.363ZM433.638 279.324V275.455H434.644V282H433.638V280.892H433.57C433.416 281.224 433.178 281.507 432.854 281.74C432.53 281.97 432.121 282.085 431.627 282.085C431.217 282.085 430.854 281.996 430.536 281.817C430.217 281.635 429.967 281.362 429.786 280.999C429.604 280.632 429.513 280.17 429.513 279.614V275.455H430.519V279.545C430.519 280.023 430.652 280.403 430.919 280.688C431.189 280.972 431.533 281.114 431.95 281.114C432.2 281.114 432.455 281.05 432.713 280.922C432.975 280.794 433.193 280.598 433.369 280.334C433.548 280.07 433.638 279.733 433.638 279.324ZM439.23 282.136C438.599 282.136 438.055 281.997 437.598 281.719C437.143 281.438 436.792 281.045 436.545 280.543C436.301 280.037 436.179 279.449 436.179 278.778C436.179 278.108 436.301 277.517 436.545 277.006C436.792 276.491 437.136 276.091 437.576 275.804C438.02 275.514 438.537 275.369 439.128 275.369C439.469 275.369 439.805 275.426 440.138 275.54C440.47 275.653 440.772 275.838 441.045 276.094C441.318 276.347 441.535 276.682 441.697 277.099C441.859 277.517 441.94 278.031 441.94 278.642V279.068H436.895V278.199H440.917C440.917 277.83 440.844 277.5 440.696 277.21C440.551 276.92 440.344 276.692 440.074 276.524C439.807 276.357 439.491 276.273 439.128 276.273C438.727 276.273 438.38 276.372 438.088 276.571C437.798 276.767 437.575 277.023 437.419 277.338C437.263 277.653 437.184 277.991 437.184 278.352V278.932C437.184 279.426 437.27 279.845 437.44 280.189C437.613 280.53 437.853 280.79 438.16 280.969C438.467 281.145 438.824 281.233 439.23 281.233C439.494 281.233 439.733 281.196 439.946 281.122C440.162 281.045 440.348 280.932 440.504 280.781C440.66 280.628 440.781 280.437 440.866 280.21L441.838 280.483C441.736 280.812 441.564 281.102 441.322 281.352C441.081 281.599 440.782 281.793 440.427 281.932C440.072 282.068 439.673 282.136 439.23 282.136Z" fill="#9D9FA2"/>
<path d="M594.533 282L592.146 273.273H593.22L595.044 280.381H595.129L596.987 273.273H598.18L600.038 280.381H600.124L601.947 273.273H603.021L600.635 282H599.544L597.618 275.045H597.55L595.624 282H594.533ZM606.337 282.136C605.706 282.136 605.162 281.997 604.705 281.719C604.25 281.438 603.899 281.045 603.652 280.543C603.408 280.037 603.286 279.449 603.286 278.778C603.286 278.108 603.408 277.517 603.652 277.006C603.899 276.491 604.243 276.091 604.683 275.804C605.126 275.514 605.643 275.369 606.234 275.369C606.575 275.369 606.912 275.426 607.244 275.54C607.577 275.653 607.879 275.838 608.152 276.094C608.425 276.347 608.642 276.682 608.804 277.099C608.966 277.517 609.047 278.031 609.047 278.642V279.068H604.001V278.199H608.024C608.024 277.83 607.95 277.5 607.803 277.21C607.658 276.92 607.45 276.692 607.18 276.524C606.913 276.357 606.598 276.273 606.234 276.273C605.834 276.273 605.487 276.372 605.195 276.571C604.905 276.767 604.682 277.023 604.526 277.338C604.369 277.653 604.291 277.991 604.291 278.352V278.932C604.291 279.426 604.376 279.845 604.547 280.189C604.72 280.53 604.96 280.79 605.267 280.969C605.574 281.145 605.93 281.233 606.337 281.233C606.601 281.233 606.839 281.196 607.053 281.122C607.268 281.045 607.455 280.932 607.611 280.781C607.767 280.628 607.888 280.437 607.973 280.21L608.945 280.483C608.842 280.812 608.67 281.102 608.429 281.352C608.188 281.599 607.889 281.793 607.534 281.932C607.179 282.068 606.78 282.136 606.337 282.136ZM613.048 282.136C612.503 282.136 612.021 281.999 611.604 281.723C611.186 281.445 610.859 281.053 610.624 280.547C610.388 280.038 610.27 279.438 610.27 278.744C610.27 278.057 610.388 277.46 610.624 276.955C610.859 276.449 611.188 276.058 611.608 275.783C612.028 275.507 612.514 275.369 613.065 275.369C613.491 275.369 613.828 275.44 614.075 275.582C614.325 275.722 614.516 275.881 614.646 276.06C614.78 276.236 614.884 276.381 614.957 276.494H615.043V273.273H616.048V282H615.077V280.994H614.957C614.884 281.114 614.778 281.264 614.642 281.446C614.506 281.625 614.311 281.786 614.058 281.928C613.805 282.067 613.469 282.136 613.048 282.136ZM613.185 281.233C613.588 281.233 613.929 281.128 614.207 280.918C614.486 280.705 614.697 280.411 614.842 280.036C614.987 279.658 615.06 279.222 615.06 278.727C615.06 278.239 614.989 277.811 614.847 277.445C614.705 277.075 614.494 276.788 614.216 276.584C613.938 276.376 613.594 276.273 613.185 276.273C612.759 276.273 612.403 276.382 612.119 276.601C611.838 276.817 611.626 277.111 611.484 277.483C611.345 277.852 611.276 278.267 611.276 278.727C611.276 279.193 611.347 279.616 611.489 279.997C611.634 280.375 611.847 280.676 612.128 280.901C612.412 281.122 612.764 281.233 613.185 281.233Z" fill="#9D9FA2"/>
<path d="M767.032 274.21V273.273H773.577V274.21H770.833V282H769.776V274.21H767.032ZM776.078 278.062V282H775.072V273.273H776.078V276.477H776.163C776.316 276.139 776.547 275.871 776.853 275.672C777.163 275.47 777.575 275.369 778.089 275.369C778.535 275.369 778.926 275.459 779.261 275.638C779.596 275.814 779.856 276.085 780.041 276.452C780.228 276.815 780.322 277.278 780.322 277.841V282H779.316V277.909C779.316 277.389 779.182 276.987 778.912 276.703C778.645 276.416 778.274 276.273 777.799 276.273C777.47 276.273 777.174 276.342 776.913 276.482C776.655 276.621 776.45 276.824 776.299 277.091C776.152 277.358 776.078 277.682 776.078 278.062ZM786.287 279.324V275.455H787.293V282H786.287V280.892H786.219C786.065 281.224 785.827 281.507 785.503 281.74C785.179 281.97 784.77 282.085 784.276 282.085C783.867 282.085 783.503 281.996 783.185 281.817C782.867 281.635 782.617 281.362 782.435 280.999C782.253 280.632 782.162 280.17 782.162 279.614V275.455H783.168V279.545C783.168 280.023 783.301 280.403 783.568 280.688C783.838 280.972 784.182 281.114 784.599 281.114C784.849 281.114 785.104 281.05 785.362 280.922C785.624 280.794 785.842 280.598 786.019 280.334C786.197 280.07 786.287 279.733 786.287 279.324Z" fill="#9D9FA2"/>
<path d="M938.581 282V273.273H943.814V274.21H939.638V277.159H943.422V278.097H939.638V282H938.581ZM945.417 282V275.455H946.389V276.443H946.457C946.576 276.119 946.792 275.857 947.105 275.655C947.417 275.453 947.769 275.352 948.161 275.352C948.235 275.352 948.328 275.354 948.438 275.357C948.549 275.359 948.633 275.364 948.69 275.369V276.392C948.656 276.384 948.578 276.371 948.456 276.354C948.336 276.334 948.21 276.324 948.076 276.324C947.758 276.324 947.474 276.391 947.224 276.524C946.977 276.655 946.781 276.837 946.636 277.07C946.494 277.3 946.423 277.562 946.423 277.858V282H945.417ZM949.882 282V275.455H950.888V282H949.882ZM950.393 274.364C950.197 274.364 950.028 274.297 949.886 274.163C949.747 274.03 949.677 273.869 949.677 273.682C949.677 273.494 949.747 273.334 949.886 273.2C950.028 273.067 950.197 273 950.393 273C950.589 273 950.757 273.067 950.896 273.2C951.038 273.334 951.109 273.494 951.109 273.682C951.109 273.869 951.038 274.03 950.896 274.163C950.757 274.297 950.589 274.364 950.393 274.364Z" fill="#9D9FA2"/>
<path d="M1106.94 275.455C1106.89 275.023 1106.68 274.688 1106.32 274.449C1105.96 274.21 1105.51 274.091 1104.98 274.091C1104.6 274.091 1104.26 274.153 1103.97 274.278C1103.68 274.403 1103.46 274.575 1103.3 274.794C1103.14 275.013 1103.06 275.261 1103.06 275.54C1103.06 275.773 1103.11 275.973 1103.22 276.141C1103.34 276.305 1103.48 276.443 1103.66 276.554C1103.83 276.662 1104.02 276.751 1104.21 276.822C1104.4 276.891 1104.58 276.946 1104.74 276.989L1105.63 277.227C1105.86 277.287 1106.11 277.369 1106.39 277.474C1106.67 277.58 1106.94 277.723 1107.19 277.905C1107.45 278.084 1107.67 278.314 1107.83 278.595C1108 278.876 1108.08 279.222 1108.08 279.631C1108.08 280.102 1107.96 280.528 1107.71 280.909C1107.47 281.29 1107.11 281.592 1106.64 281.817C1106.17 282.041 1105.6 282.153 1104.93 282.153C1104.31 282.153 1103.77 282.053 1103.31 281.851C1102.85 281.649 1102.5 281.368 1102.23 281.007C1101.98 280.646 1101.83 280.227 1101.8 279.75H1102.89C1102.91 280.08 1103.03 280.352 1103.22 280.568C1103.41 280.781 1103.66 280.94 1103.96 281.045C1104.26 281.148 1104.58 281.199 1104.93 281.199C1105.33 281.199 1105.7 281.134 1106.02 281.003C1106.34 280.869 1106.59 280.685 1106.78 280.449C1106.97 280.21 1107.06 279.932 1107.06 279.614C1107.06 279.324 1106.98 279.088 1106.82 278.906C1106.66 278.724 1106.44 278.577 1106.18 278.463C1105.92 278.349 1105.63 278.25 1105.32 278.165L1104.25 277.858C1103.57 277.662 1103.03 277.382 1102.63 277.018C1102.23 276.655 1102.03 276.179 1102.03 275.591C1102.03 275.102 1102.17 274.676 1102.43 274.312C1102.7 273.946 1103.05 273.662 1103.5 273.46C1103.96 273.256 1104.46 273.153 1105.02 273.153C1105.58 273.153 1106.08 273.254 1106.52 273.456C1106.95 273.655 1107.3 273.928 1107.56 274.274C1107.81 274.621 1107.95 275.014 1107.97 275.455H1106.94ZM1111.61 282.153C1111.2 282.153 1110.82 282.075 1110.48 281.919C1110.14 281.76 1109.88 281.531 1109.68 281.233C1109.48 280.932 1109.38 280.568 1109.38 280.142C1109.38 279.767 1109.45 279.463 1109.6 279.23C1109.75 278.994 1109.95 278.81 1110.19 278.676C1110.44 278.543 1110.71 278.443 1111.01 278.378C1111.31 278.31 1111.61 278.256 1111.92 278.216C1112.32 278.165 1112.64 278.126 1112.89 278.101C1113.14 278.072 1113.32 278.026 1113.43 277.96C1113.55 277.895 1113.61 277.781 1113.61 277.619V277.585C1113.61 277.165 1113.49 276.838 1113.26 276.605C1113.03 276.372 1112.69 276.256 1112.23 276.256C1111.75 276.256 1111.37 276.361 1111.1 276.571C1110.82 276.781 1110.63 277.006 1110.52 277.244L1109.57 276.903C1109.74 276.506 1109.96 276.196 1110.25 275.974C1110.54 275.75 1110.85 275.594 1111.19 275.506C1111.53 275.415 1111.86 275.369 1112.19 275.369C1112.4 275.369 1112.64 275.395 1112.92 275.446C1113.19 275.494 1113.46 275.595 1113.71 275.749C1113.97 275.902 1114.19 276.134 1114.36 276.443C1114.53 276.753 1114.61 277.168 1114.61 277.688V282H1113.61V281.114H1113.56C1113.49 281.256 1113.37 281.408 1113.21 281.57C1113.06 281.732 1112.84 281.869 1112.58 281.983C1112.32 282.097 1111.99 282.153 1111.61 282.153ZM1111.77 281.25C1112.16 281.25 1112.5 281.172 1112.77 281.016C1113.05 280.859 1113.25 280.658 1113.39 280.411C1113.54 280.163 1113.61 279.903 1113.61 279.631V278.71C1113.56 278.761 1113.47 278.808 1113.33 278.851C1113.18 278.891 1113.02 278.926 1112.83 278.957C1112.65 278.986 1112.47 279.011 1112.29 279.034C1112.12 279.054 1111.98 279.071 1111.87 279.085C1111.61 279.119 1111.36 279.175 1111.13 279.251C1110.91 279.325 1110.73 279.437 1110.59 279.588C1110.45 279.736 1110.38 279.937 1110.38 280.193C1110.38 280.543 1110.51 280.807 1110.77 280.986C1111.03 281.162 1111.36 281.25 1111.77 281.25ZM1119.29 275.455V276.307H1115.9V275.455H1119.29ZM1116.89 273.886H1117.9V280.125C1117.9 280.409 1117.94 280.622 1118.02 280.764C1118.11 280.903 1118.21 280.997 1118.34 281.045C1118.48 281.091 1118.62 281.114 1118.77 281.114C1118.88 281.114 1118.97 281.108 1119.04 281.097C1119.11 281.082 1119.17 281.071 1119.21 281.062L1119.41 281.966C1119.35 281.991 1119.25 282.017 1119.13 282.043C1119.01 282.071 1118.85 282.085 1118.66 282.085C1118.38 282.085 1118.1 282.024 1117.83 281.902C1117.56 281.78 1117.33 281.594 1117.16 281.344C1116.98 281.094 1116.89 280.778 1116.89 280.398V273.886Z" fill="#9D9FA2"/>
<path d="M77 136.467C105.269 131.132 280.573 147.139 315.285 126.576C358.674 100.872 393.03 18.3263 432.129 64.69C474.053 114.404 544.94 -41.8767 603.044 14.4136C629.295 39.8459 685.837 118.038 741.654 118.038C787.016 118.038 786.952 44.4106 877.677 44.4106C968.401 44.4106 960.246 136.467 1120 136.467" stroke="#20C997" stroke-width="3"/>
<path d="M315.285 126.576C280.573 147.139 105.269 131.132 77 136.467V242H1120V136.467C960.246 136.467 968.401 44.4106 877.677 44.4106C786.952 44.4106 787.016 118.038 741.654 118.038C685.837 118.038 629.295 39.8459 603.044 14.4136C544.94 -41.8767 474.053 114.404 432.129 64.69C393.03 18.3263 358.674 100.872 315.285 126.576Z" fill="url(#paint0_linear_0_591)"/>
<path d="M203.483 117.52C169.235 133.621 104.891 146.001 77 150.178V242H1120V93.9768C962.382 93.9768 960.437 190.43 870.925 190.43C781.414 190.43 777.522 86.5901 732.767 86.5901C688.011 86.5901 699.687 165.367 596.554 161.949C493.422 158.532 442.828 124.735 380.56 93.9768C318.626 63.3839 247.068 97.0283 204.177 117.194L203.483 117.52Z" fill="url(#paint1_linear_0_591)"/>
<path d="M77 150.178C104.891 146.001 169.235 133.621 203.483 117.52C246.293 97.3944 318.291 63.2183 380.56 93.9768C442.828 124.735 493.422 158.532 596.554 161.949C699.687 165.367 688.011 87.0819 732.767 87.0819C777.522 87.0819 781.414 190.43 870.925 190.43C960.437 190.43 962.382 93.9768 1120 93.9768" stroke="#679CF6" stroke-width="3"/>
<defs>
<linearGradient id="paint0_linear_0_591" x1="598.5" y1="2" x2="598.5" y2="242" gradientUnits="userSpaceOnUse">
<stop stop-color="#20C997" stop-opacity="0.13"/>
<stop offset="1" stop-color="#20C997" stop-opacity="0"/>
</linearGradient>
<linearGradient id="paint1_linear_0_591" x1="598.5" y1="81.6723" x2="598.5" y2="242" gradientUnits="userSpaceOnUse">
<stop stop-color="#4285F4" stop-opacity="0.25"/>
<stop offset="1" stop-color="#4285F4" stop-opacity="0"/>
</linearGradient>
</defs>
</svg>
